<?xml version="1.0" encoding="UTF-8" standalone="no"?>
<!-- Generator: Adobe Illustrator 16.0.0, SVG Export Plug-In . SVG Version: 6.00 Build 0)  -->

<svg
   xmlns:dc="http://purl.org/dc/elements/1.1/"
   xmlns:cc="http://creativecommons.org/ns#"
   xmlns:rdf="http://www.w3.org/1999/02/22-rdf-syntax-ns#"
   xmlns:svg="http://www.w3.org/2000/svg"
   xmlns="http://www.w3.org/2000/svg"
   xmlns:sodipodi="http://sodipodi.sourceforge.net/DTD/sodipodi-0.dtd"
   xmlns:inkscape="http://www.inkscape.org/namespaces/inkscape"
   version="1.1"
   id="Capa_1"
   x="0px"
   y="0px"
   width="109.32386"
   height="122.86345"
   viewBox="0 0 109.32386 122.86345"
   xml:space="preserve"
   sodipodi:docname="32418.svg"
   inkscape:version="0.92.4 (unknown)"><metadata
   id="metadata41"><rdf:RDF><cc:Work
       rdf:about=""><dc:format>image/svg+xml</dc:format><dc:type
         rdf:resource="http://purl.org/dc/dcmitype/StillImage" /><dc:title></dc:title></cc:Work></rdf:RDF></metadata><defs
   id="defs39" /><sodipodi:namedview
   pagecolor="#ffffff"
   bordercolor="#666666"
   borderopacity="1"
   objecttolerance="10"
   gridtolerance="10"
   guidetolerance="10"
   inkscape:pageopacity="0"
   inkscape:pageshadow="2"
   inkscape:window-width="822"
   inkscape:window-height="480"
   id="namedview37"
   showgrid="false"
   fit-margin-top="0"
   fit-margin-left="0"
   fit-margin-right="0"
   fit-margin-bottom="0"
   inkscape:zoom="0.48479371"
   inkscape:cx="243.4025"
   inkscape:cy="225.4185"
   inkscape:window-x="5405"
   inkscape:window-y="350"
   inkscape:window-maximized="0"
   inkscape:current-layer="Capa_1" />
<g
   id="g4"
   transform="matrix(0.22457469,0,0,0.27252239,0,-4.9007701)">
	<path
   d="m 261.397,17.983 c -88.909,0 -167.372,51.302 -203.909,129.073 L 32.072,94.282 0,109.73 52.783,219.295 162.348,166.509 146.897,134.443 89.82,161.934 C 120.653,96.626 186.638,53.581 261.397,53.581 c 104.668,0 189.818,85.154 189.818,189.821 0,104.667 -85.15,189.824 -189.818,189.824 -61.631,0 -119.663,-30.109 -155.228,-80.539 l -29.096,20.521 c 42.241,59.87 111.143,95.613 184.324,95.613 124.286,0 225.407,-101.122 225.407,-225.419 0,-124.297 -101.12,-225.419 -225.407,-225.419 z"
   id="path2"
   inkscape:connector-curvature="0" />
</g>
<g
   id="g6"
   transform="translate(0,-345.95755)">
</g>
<g
   id="g8"
   transform="translate(0,-345.95755)">
</g>
<g
   id="g10"
   transform="translate(0,-345.95755)">
</g>
<g
   id="g12"
   transform="translate(0,-345.95755)">
</g>
<g
   id="g14"
   transform="translate(0,-345.95755)">
</g>
<g
   id="g16"
   transform="translate(0,-345.95755)">
</g>
<g
   id="g18"
   transform="translate(0,-345.95755)">
</g>
<g
   id="g20"
   transform="translate(0,-345.95755)">
</g>
<g
   id="g22"
   transform="translate(0,-345.95755)">
</g>
<g
   id="g24"
   transform="translate(0,-345.95755)">
</g>
<g
   id="g26"
   transform="translate(0,-345.95755)">
</g>
<g
   id="g28"
   transform="translate(0,-345.95755)">
</g>
<g
   id="g30"
   transform="translate(0,-345.95755)">
</g>
<g
   id="g32"
   transform="translate(0,-345.95755)">
</g>
<g
   id="g34"
   transform="translate(0,-345.95755)">
</g>
</svg>