<?xml version="1.0" encoding="utf-8" standalone="no"?>
<!DOCTYPE svg PUBLIC "-//W3C//DTD SVG 1.1//EN"
  "http://www.w3.org/Graphics/SVG/1.1/DTD/svg11.dtd">
<!-- Created with matplotlib (http://matplotlib.org/) -->
<svg height="432pt" version="1.1" viewBox="0 0 576 432" width="576pt" xmlns="http://www.w3.org/2000/svg" xmlns:xlink="http://www.w3.org/1999/xlink">
 <defs>
  <style type="text/css">
*{stroke-linecap:butt;stroke-linejoin:round;stroke-miterlimit:100000;}
  </style>
 </defs>
 <g id="figure_1">
  <g id="patch_1">
   <path d="M 0 432 
L 576 432 
L 576 0 
L 0 0 
z
" style="fill:#ffffff;"/>
  </g>
  <g id="axes_1">
   <g id="patch_2">
    <path d="M 72 388.8 
L 518.4 388.8 
L 518.4 43.2 
L 72 43.2 
z
" style="fill:#ffffff;"/>
   </g>
   <g id="line2d_1">
    <path clip-path="url(#pff99bd13fa)" d="M 72 48.858243 
L 72.988457 50.535793 
L 74.072571 52.823715 
L 75.284229 55.929061 
L 76.591543 59.917633 
L 78.0264 65.039546 
L 79.5888 71.473765 
L 81.310629 79.554184 
L 83.191886 89.4998 
L 85.264457 101.701853 
L 87.592114 116.797485 
L 90.238629 135.486953 
L 93.395314 159.44189 
L 97.731771 194.207365 
L 106.245257 262.730518 
L 109.593257 287.666336 
L 112.3992 306.952286 
L 114.886286 322.543641 
L 117.118286 335.174829 
L 119.158971 345.50204 
L 121.072114 354.066867 
L 122.825829 360.936541 
L 124.452 366.452296 
L 125.982514 370.887445 
L 127.417371 374.380827 
L 128.724686 377.008864 
L 129.968229 379.025011 
L 131.116114 380.475505 
L 132.168343 381.466715 
L 133.1568 382.11042 
L 134.113371 382.475547 
L 135.038057 382.594695 
L 135.962743 382.491572 
L 136.919314 382.15957 
L 137.939657 381.563486 
L 139.055657 380.639744 
L 140.267314 379.334546 
L 141.606514 377.552653 
L 143.105143 375.174858 
L 144.795086 372.064279 
L 146.772 367.938523 
L 149.163429 362.402409 
L 152.447657 354.18133 
L 159.845143 335.500333 
L 162.491657 329.515363 
L 164.755543 324.927521 
L 166.764343 321.345396 
L 168.581829 318.543199 
L 170.271771 316.335189 
L 171.834171 314.646192 
L 173.3328 313.348442 
L 174.735771 312.418678 
L 176.106857 311.772006 
L 177.446057 311.383062 
L 178.785257 311.223902 
L 180.156343 311.285657 
L 181.5912 311.575772 
L 183.121714 312.114577 
L 184.843543 312.96576 
L 186.820457 314.200655 
L 189.4032 316.09441 
L 195.589029 320.73256 
L 197.534057 321.851737 
L 199.160229 322.536936 
L 200.595086 322.904089 
L 201.9024 323.011647 
L 203.114057 322.893495 
L 204.293829 322.556737 
L 205.4736 321.982827 
L 206.653371 321.154629 
L 207.865029 320.022631 
L 209.108571 318.547904 
L 210.415886 316.639095 
L 211.786971 314.225778 
L 213.221829 311.233159 
L 214.720457 307.583203 
L 216.314743 303.100387 
L 218.004686 297.666115 
L 219.790286 291.161165 
L 221.703429 283.332941 
L 223.776 273.879687 
L 226.008 262.625673 
L 228.4632 249.063801 
L 231.237257 232.435344 
L 234.4896 211.526338 
L 238.985486 181.03311 
L 246.606171 129.292845 
L 249.794743 109.288473 
L 252.409371 94.252379 
L 254.673257 82.494595 
L 256.682057 73.20572 
L 258.467657 65.956228 
L 260.093829 60.247764 
L 261.560571 55.874964 
L 262.899771 52.555164 
L 264.111429 50.124294 
L 265.195543 48.422642 
L 266.184 47.268342 
L 267.0768 46.556047 
L 267.873943 46.187707 
L 268.6392 46.073362 
L 269.372571 46.184802 
L 270.137829 46.532439 
L 270.934971 47.146172 
L 271.795886 48.097272 
L 272.752457 49.504239 
L 273.804686 51.475339 
L 274.952571 54.12691 
L 276.196114 57.581543 
L 277.5672 62.078276 
L 279.065829 67.795734 
L 280.692 74.912584 
L 282.4776 83.766988 
L 284.422629 94.568601 
L 286.590857 107.905389 
L 289.046057 124.456674 
L 291.883886 145.174447 
L 295.4232 172.761055 
L 301.832229 224.889419 
L 306.710743 263.666728 
L 310.026857 288.308133 
L 312.8328 307.540838 
L 315.288 322.887921 
L 317.52 335.484091 
L 319.560686 345.777166 
L 321.441943 354.175534 
L 323.195657 361.031139 
L 324.821829 366.533694 
L 326.352343 370.956394 
L 327.7872 374.438176 
L 329.094514 377.055774 
L 330.338057 379.062162 
L 331.485943 380.503839 
L 332.538171 381.487161 
L 333.526629 382.123651 
L 334.4832 382.481997 
L 335.407886 382.594796 
L 336.332571 382.485542 
L 337.289143 382.147446 
L 338.309486 381.545154 
L 339.425486 380.61499 
L 340.637143 379.303278 
L 341.976343 377.51477 
L 343.474971 375.13033 
L 345.1968 371.950506 
L 347.173714 367.810936 
L 349.565143 362.262624 
L 352.881257 353.950926 
L 360.119314 335.665509 
L 362.797714 329.596448 
L 365.0616 324.99952 
L 367.0704 321.408209 
L 368.887886 318.597026 
L 370.577829 316.380271 
L 372.140229 314.683006 
L 373.638857 313.37729 
L 375.041829 312.440143 
L 376.412914 311.786421 
L 377.752114 311.390834 
L 379.091314 311.225352 
L 380.4624 311.281046 
L 381.897257 311.56535 
L 383.427771 312.098651 
L 385.117714 312.926855 
L 387.094629 314.153296 
L 389.645486 316.016124 
L 396.022629 320.790099 
L 397.935771 321.880433 
L 399.530057 322.545692 
L 400.964914 322.908434 
L 402.272229 323.011394 
L 403.483886 322.888506 
L 404.663657 322.546719 
L 405.843429 321.96739 
L 407.0232 321.133408 
L 408.234857 319.995122 
L 409.4784 318.513605 
L 410.785714 316.597336 
L 412.1568 314.175889 
L 413.591657 311.17449 
L 415.090286 307.515142 
L 416.684571 303.022179 
L 418.374514 297.57709 
L 420.160114 291.06078 
L 422.073257 283.220636 
L 424.145829 273.754974 
L 426.377829 262.488452 
L 428.833029 248.914176 
L 431.607086 232.273847 
L 434.891314 211.143317 
L 439.419086 180.414639 
L 446.912229 129.538733 
L 450.1008 109.515824 
L 452.715429 94.459248 
L 454.979314 82.680127 
L 456.988114 73.369737 
L 458.773714 66.099268 
L 460.399886 60.37034 
L 461.866629 55.978096 
L 463.205829 52.639828 
L 464.417486 50.191742 
L 465.5016 48.474339 
L 466.490057 47.30544 
L 467.382857 46.579798 
L 468.18 46.199439 
L 468.945257 46.073488 
L 469.678629 46.17376 
L 470.443886 46.509717 
L 471.241029 47.111275 
L 472.101943 48.049244 
L 473.058514 49.441676 
L 474.110743 51.396899 
L 475.258629 54.031346 
L 476.502171 57.467732 
L 477.873257 61.944811 
L 479.371886 67.641472 
L 480.998057 74.736718 
L 482.783657 83.568751 
L 484.728686 94.347838 
L 486.896914 107.662072 
L 489.320229 123.967892 
L 492.158057 144.648517 
L 495.665486 171.9497 
L 501.787543 221.726339 
L 506.889257 262.393652 
L 510.237257 287.353257 
L 513.0432 306.665019 
L 515.530286 322.283033 
L 517.762286 334.940624 
L 518.368114 338.139172 
L 518.368114 338.139172 
" style="fill:none;stroke:#0000ff;stroke-linecap:square;stroke-width:2.0;"/>
   </g>
   <g id="line2d_2">
    <defs>
     <path d="M 0 3 
C 0.795609 3 1.55874 2.683901 2.12132 2.12132 
C 2.683901 1.55874 3 0.795609 3 0 
C 3 -0.795609 2.683901 -1.55874 2.12132 -2.12132 
C 1.55874 -2.683901 0.795609 -3 0 -3 
C -0.795609 -3 -1.55874 -2.683901 -2.12132 -2.12132 
C -2.683901 -1.55874 -3 -0.795609 -3 0 
C -3 0.795609 -2.683901 1.55874 -2.12132 2.12132 
C -1.55874 2.683901 -0.795609 3 0 3 
z
" id="m932f017052" style="stroke:#000000;stroke-width:0.5;"/>
    </defs>
    <g clip-path="url(#pff99bd13fa)">
     <use style="fill:#ff0000;stroke:#000000;stroke-width:0.5;" x="263.314285714" xlink:href="#m932f017052" y="51.6614933221"/>
     <use style="fill:#ff0000;stroke:#000000;stroke-width:0.5;" x="263.146205274" xlink:href="#m932f017052" y="52.0161406956"/>
     <use style="fill:#ff0000;stroke:#000000;stroke-width:0.5;" x="262.815628827" xlink:href="#m932f017052" y="52.7443767532"/>
     <use style="fill:#ff0000;stroke:#000000;stroke-width:0.5;" x="262.299627665" xlink:href="#m932f017052" y="53.9618721465"/>
     <use style="fill:#ff0000;stroke:#000000;stroke-width:0.5;" x="261.559927996" xlink:href="#m932f017052" y="55.8767157953"/>
     <use style="fill:#ff0000;stroke:#000000;stroke-width:0.5;" x="260.539355188" xlink:href="#m932f017052" y="58.8399013852"/>
     <use style="fill:#ff0000;stroke:#000000;stroke-width:0.5;" x="259.156954986" xlink:href="#m932f017052" y="63.4290961367"/>
     <use style="fill:#ff0000;stroke:#000000;stroke-width:0.5;" x="257.302619782" xlink:href="#m932f017052" y="70.5742278298"/>
     <use style="fill:#ff0000;stroke:#000000;stroke-width:0.5;" x="254.83394588" xlink:href="#m932f017052" y="81.7100658668"/>
     <use style="fill:#ff0000;stroke:#000000;stroke-width:0.5;" x="251.582467927" xlink:href="#m932f017052" y="98.8521012718"/>
     <use style="fill:#ff0000;stroke:#000000;stroke-width:0.5;" x="247.384631532" xlink:href="#m932f017052" y="124.269102616"/>
     <use style="fill:#ff0000;stroke:#000000;stroke-width:0.5;" x="242.161369099" xlink:href="#m932f017052" y="159.142149057"/>
     <use style="fill:#ff0000;stroke:#000000;stroke-width:0.5;" x="236.056037875" xlink:href="#m932f017052" y="201.051079851"/>
     <use style="fill:#ff0000;stroke:#000000;stroke-width:0.5;" x="229.554679247" xlink:href="#m932f017052" y="242.673841258"/>
     <use style="fill:#ff0000;stroke:#000000;stroke-width:0.5;" x="223.388650655" xlink:href="#m932f017052" y="275.721289854"/>
     <use style="fill:#ff0000;stroke:#000000;stroke-width:0.5;" x="218.159847865" xlink:href="#m932f017052" y="297.131896254"/>
     <use style="fill:#ff0000;stroke:#000000;stroke-width:0.5;" x="214.062442314" xlink:href="#m932f017052" y="309.252567151"/>
     <use style="fill:#ff0000;stroke:#000000;stroke-width:0.5;" x="210.973588344" xlink:href="#m932f017052" y="315.709160243"/>
     <use style="fill:#ff0000;stroke:#000000;stroke-width:0.5;" x="208.671016147" xlink:href="#m932f017052" y="319.103935173"/>
     <use style="fill:#ff0000;stroke:#000000;stroke-width:0.5;" x="206.952136911" xlink:href="#m932f017052" y="320.902616218"/>
     <use style="fill:#ff0000;stroke:#000000;stroke-width:0.5;" x="205.662525312" xlink:href="#m932f017052" y="321.867731251"/>
     <use style="fill:#ff0000;stroke:#000000;stroke-width:0.5;" x="204.690630358" xlink:href="#m932f017052" y="322.391052826"/>
     <use style="fill:#ff0000;stroke:#000000;stroke-width:0.5;" x="203.956439819" xlink:href="#m932f017052" y="322.67647683"/>
     <use style="fill:#ff0000;stroke:#000000;stroke-width:0.5;" x="203.401913604" xlink:href="#m932f017052" y="322.832234491"/>
     <use style="fill:#ff0000;stroke:#000000;stroke-width:0.5;" x="202.984209725" xlink:href="#m932f017052" y="322.916845857"/>
     <use style="fill:#ff0000;stroke:#000000;stroke-width:0.5;" x="202.671135708" xlink:href="#m932f017052" y="322.962387945"/>
     <use style="fill:#ff0000;stroke:#000000;stroke-width:0.5;" x="202.438128782" xlink:href="#m932f017052" y="322.986577107"/>
     <use style="fill:#ff0000;stroke:#000000;stroke-width:0.5;" x="202.266235585" xlink:href="#m932f017052" y="322.99920998"/>
     <use style="fill:#ff0000;stroke:#000000;stroke-width:0.5;" x="202.14073436" xlink:href="#m932f017052" y="323.005677253"/>
     <use style="fill:#ff0000;stroke:#000000;stroke-width:0.5;" x="202.050168461" xlink:href="#m932f017052" y="323.008914198"/>
     <use style="fill:#ff0000;stroke:#000000;stroke-width:0.5;" x="201.985644259" xlink:href="#m932f017052" y="323.010494615"/>
     <use style="fill:#ff0000;stroke:#000000;stroke-width:0.5;" x="201.940301262" xlink:href="#m932f017052" y="323.011245904"/>
    </g>
   </g>
   <g id="patch_3">
    <path d="M 72 43.2 
L 518.4 43.2 
" style="fill:none;stroke:#000000;stroke-linecap:square;stroke-linejoin:miter;"/>
   </g>
   <g id="patch_4">
    <path d="M 518.4 388.8 
L 518.4 43.2 
" style="fill:none;stroke:#000000;stroke-linecap:square;stroke-linejoin:miter;"/>
   </g>
   <g id="patch_5">
    <path d="M 72 388.8 
L 518.4 388.8 
" style="fill:none;stroke:#000000;stroke-linecap:square;stroke-linejoin:miter;"/>
   </g>
   <g id="patch_6">
    <path d="M 72 388.8 
L 72 43.2 
" style="fill:none;stroke:#000000;stroke-linecap:square;stroke-linejoin:miter;"/>
   </g>
   <g id="matplotlib.axis_1">
    <g id="xtick_1">
     <g id="line2d_3">
      <path clip-path="url(#pff99bd13fa)" d="M 72 388.8 
L 72 43.2 
" style="fill:none;stroke:#000000;stroke-dasharray:1.000000,3.000000;stroke-dashoffset:0.0;stroke-width:0.5;"/>
     </g>
     <g id="line2d_4">
      <defs>
       <path d="M 0 0 
L 0 -4 
" id="mc7fd86afe1" style="stroke:#000000;stroke-width:0.5;"/>
      </defs>
      <g>
       <use style="stroke:#000000;stroke-width:0.5;" x="72.0" xlink:href="#mc7fd86afe1" y="388.8"/>
      </g>
     </g>
     <g id="line2d_5">
      <defs>
       <path d="M 0 0 
L 0 4 
" id="m800e181340" style="stroke:#000000;stroke-width:0.5;"/>
      </defs>
      <g>
       <use style="stroke:#000000;stroke-width:0.5;" x="72.0" xlink:href="#m800e181340" y="43.2"/>
      </g>
     </g>
     <g id="text_1">
      <!-- −6 -->
      <defs>
       <path d="M 10.59375 35.5 
L 73.1875 35.5 
L 73.1875 27.203125 
L 10.59375 27.203125 
z
" id="BitstreamVeraSans-Roman-2212"/>
       <path d="M 33.015625 40.375 
Q 26.375 40.375 22.484375 35.828125 
Q 18.609375 31.296875 18.609375 23.390625 
Q 18.609375 15.53125 22.484375 10.953125 
Q 26.375 6.390625 33.015625 6.390625 
Q 39.65625 6.390625 43.53125 10.953125 
Q 47.40625 15.53125 47.40625 23.390625 
Q 47.40625 31.296875 43.53125 35.828125 
Q 39.65625 40.375 33.015625 40.375 
M 52.59375 71.296875 
L 52.59375 62.3125 
Q 48.875 64.0625 45.09375 64.984375 
Q 41.3125 65.921875 37.59375 65.921875 
Q 27.828125 65.921875 22.671875 59.328125 
Q 17.53125 52.734375 16.796875 39.40625 
Q 19.671875 43.65625 24.015625 45.921875 
Q 28.375 48.1875 33.59375 48.1875 
Q 44.578125 48.1875 50.953125 41.515625 
Q 57.328125 34.859375 57.328125 23.390625 
Q 57.328125 12.15625 50.6875 5.359375 
Q 44.046875 -1.421875 33.015625 -1.421875 
Q 20.359375 -1.421875 13.671875 8.265625 
Q 6.984375 17.96875 6.984375 36.375 
Q 6.984375 53.65625 15.1875 63.9375 
Q 23.390625 74.21875 37.203125 74.21875 
Q 40.921875 74.21875 44.703125 73.484375 
Q 48.484375 72.75 52.59375 71.296875 
" id="BitstreamVeraSans-Roman-36"/>
      </defs>
      <g transform="translate(63.1546875 401.918125)scale(0.12 -0.12)">
       <use xlink:href="#BitstreamVeraSans-Roman-2212"/>
       <use x="83.7890625" xlink:href="#BitstreamVeraSans-Roman-36"/>
      </g>
     </g>
    </g>
    <g id="xtick_2">
     <g id="line2d_6">
      <path clip-path="url(#pff99bd13fa)" d="M 135.771429 388.8 
L 135.771429 43.2 
" style="fill:none;stroke:#000000;stroke-dasharray:1.000000,3.000000;stroke-dashoffset:0.0;stroke-width:0.5;"/>
     </g>
     <g id="line2d_7">
      <g>
       <use style="stroke:#000000;stroke-width:0.5;" x="135.771428571" xlink:href="#mc7fd86afe1" y="388.8"/>
      </g>
     </g>
     <g id="line2d_8">
      <g>
       <use style="stroke:#000000;stroke-width:0.5;" x="135.771428571" xlink:href="#m800e181340" y="43.2"/>
      </g>
     </g>
     <g id="text_2">
      <!-- −4 -->
      <defs>
       <path d="M 37.796875 64.3125 
L 12.890625 25.390625 
L 37.796875 25.390625 
z
M 35.203125 72.90625 
L 47.609375 72.90625 
L 47.609375 25.390625 
L 58.015625 25.390625 
L 58.015625 17.1875 
L 47.609375 17.1875 
L 47.609375 0 
L 37.796875 0 
L 37.796875 17.1875 
L 4.890625 17.1875 
L 4.890625 26.703125 
z
" id="BitstreamVeraSans-Roman-34"/>
      </defs>
      <g transform="translate(126.926116071 401.918125)scale(0.12 -0.12)">
       <use xlink:href="#BitstreamVeraSans-Roman-2212"/>
       <use x="83.7890625" xlink:href="#BitstreamVeraSans-Roman-34"/>
      </g>
     </g>
    </g>
    <g id="xtick_3">
     <g id="line2d_9">
      <path clip-path="url(#pff99bd13fa)" d="M 199.542857 388.8 
L 199.542857 43.2 
" style="fill:none;stroke:#000000;stroke-dasharray:1.000000,3.000000;stroke-dashoffset:0.0;stroke-width:0.5;"/>
     </g>
     <g id="line2d_10">
      <g>
       <use style="stroke:#000000;stroke-width:0.5;" x="199.542857143" xlink:href="#mc7fd86afe1" y="388.8"/>
      </g>
     </g>
     <g id="line2d_11">
      <g>
       <use style="stroke:#000000;stroke-width:0.5;" x="199.542857143" xlink:href="#m800e181340" y="43.2"/>
      </g>
     </g>
     <g id="text_3">
      <!-- −2 -->
      <defs>
       <path d="M 19.1875 8.296875 
L 53.609375 8.296875 
L 53.609375 0 
L 7.328125 0 
L 7.328125 8.296875 
Q 12.9375 14.109375 22.625 23.890625 
Q 32.328125 33.6875 34.8125 36.53125 
Q 39.546875 41.84375 41.421875 45.53125 
Q 43.3125 49.21875 43.3125 52.78125 
Q 43.3125 58.59375 39.234375 62.25 
Q 35.15625 65.921875 28.609375 65.921875 
Q 23.96875 65.921875 18.8125 64.3125 
Q 13.671875 62.703125 7.8125 59.421875 
L 7.8125 69.390625 
Q 13.765625 71.78125 18.9375 73 
Q 24.125 74.21875 28.421875 74.21875 
Q 39.75 74.21875 46.484375 68.546875 
Q 53.21875 62.890625 53.21875 53.421875 
Q 53.21875 48.921875 51.53125 44.890625 
Q 49.859375 40.875 45.40625 35.40625 
Q 44.1875 33.984375 37.640625 27.21875 
Q 31.109375 20.453125 19.1875 8.296875 
" id="BitstreamVeraSans-Roman-32"/>
      </defs>
      <g transform="translate(190.697544643 401.918125)scale(0.12 -0.12)">
       <use xlink:href="#BitstreamVeraSans-Roman-2212"/>
       <use x="83.7890625" xlink:href="#BitstreamVeraSans-Roman-32"/>
      </g>
     </g>
    </g>
    <g id="xtick_4">
     <g id="line2d_12">
      <path clip-path="url(#pff99bd13fa)" d="M 263.314286 388.8 
L 263.314286 43.2 
" style="fill:none;stroke:#000000;stroke-dasharray:1.000000,3.000000;stroke-dashoffset:0.0;stroke-width:0.5;"/>
     </g>
     <g id="line2d_13">
      <g>
       <use style="stroke:#000000;stroke-width:0.5;" x="263.314285714" xlink:href="#mc7fd86afe1" y="388.8"/>
      </g>
     </g>
     <g id="line2d_14">
      <g>
       <use style="stroke:#000000;stroke-width:0.5;" x="263.314285714" xlink:href="#m800e181340" y="43.2"/>
      </g>
     </g>
     <g id="text_4">
      <!-- 0 -->
      <defs>
       <path d="M 31.78125 66.40625 
Q 24.171875 66.40625 20.328125 58.90625 
Q 16.5 51.421875 16.5 36.375 
Q 16.5 21.390625 20.328125 13.890625 
Q 24.171875 6.390625 31.78125 6.390625 
Q 39.453125 6.390625 43.28125 13.890625 
Q 47.125 21.390625 47.125 36.375 
Q 47.125 51.421875 43.28125 58.90625 
Q 39.453125 66.40625 31.78125 66.40625 
M 31.78125 74.21875 
Q 44.046875 74.21875 50.515625 64.515625 
Q 56.984375 54.828125 56.984375 36.375 
Q 56.984375 17.96875 50.515625 8.265625 
Q 44.046875 -1.421875 31.78125 -1.421875 
Q 19.53125 -1.421875 13.0625 8.265625 
Q 6.59375 17.96875 6.59375 36.375 
Q 6.59375 54.828125 13.0625 64.515625 
Q 19.53125 74.21875 31.78125 74.21875 
" id="BitstreamVeraSans-Roman-30"/>
      </defs>
      <g transform="translate(259.496785714 401.918125)scale(0.12 -0.12)">
       <use xlink:href="#BitstreamVeraSans-Roman-30"/>
      </g>
     </g>
    </g>
    <g id="xtick_5">
     <g id="line2d_15">
      <path clip-path="url(#pff99bd13fa)" d="M 327.085714 388.8 
L 327.085714 43.2 
" style="fill:none;stroke:#000000;stroke-dasharray:1.000000,3.000000;stroke-dashoffset:0.0;stroke-width:0.5;"/>
     </g>
     <g id="line2d_16">
      <g>
       <use style="stroke:#000000;stroke-width:0.5;" x="327.085714286" xlink:href="#mc7fd86afe1" y="388.8"/>
      </g>
     </g>
     <g id="line2d_17">
      <g>
       <use style="stroke:#000000;stroke-width:0.5;" x="327.085714286" xlink:href="#m800e181340" y="43.2"/>
      </g>
     </g>
     <g id="text_5">
      <!-- 2 -->
      <g transform="translate(323.268214286 401.918125)scale(0.12 -0.12)">
       <use xlink:href="#BitstreamVeraSans-Roman-32"/>
      </g>
     </g>
    </g>
    <g id="xtick_6">
     <g id="line2d_18">
      <path clip-path="url(#pff99bd13fa)" d="M 390.857143 388.8 
L 390.857143 43.2 
" style="fill:none;stroke:#000000;stroke-dasharray:1.000000,3.000000;stroke-dashoffset:0.0;stroke-width:0.5;"/>
     </g>
     <g id="line2d_19">
      <g>
       <use style="stroke:#000000;stroke-width:0.5;" x="390.857142857" xlink:href="#mc7fd86afe1" y="388.8"/>
      </g>
     </g>
     <g id="line2d_20">
      <g>
       <use style="stroke:#000000;stroke-width:0.5;" x="390.857142857" xlink:href="#m800e181340" y="43.2"/>
      </g>
     </g>
     <g id="text_6">
      <!-- 4 -->
      <g transform="translate(387.039642857 401.918125)scale(0.12 -0.12)">
       <use xlink:href="#BitstreamVeraSans-Roman-34"/>
      </g>
     </g>
    </g>
    <g id="xtick_7">
     <g id="line2d_21">
      <path clip-path="url(#pff99bd13fa)" d="M 454.628571 388.8 
L 454.628571 43.2 
" style="fill:none;stroke:#000000;stroke-dasharray:1.000000,3.000000;stroke-dashoffset:0.0;stroke-width:0.5;"/>
     </g>
     <g id="line2d_22">
      <g>
       <use style="stroke:#000000;stroke-width:0.5;" x="454.628571429" xlink:href="#mc7fd86afe1" y="388.8"/>
      </g>
     </g>
     <g id="line2d_23">
      <g>
       <use style="stroke:#000000;stroke-width:0.5;" x="454.628571429" xlink:href="#m800e181340" y="43.2"/>
      </g>
     </g>
     <g id="text_7">
      <!-- 6 -->
      <g transform="translate(450.811071429 401.918125)scale(0.12 -0.12)">
       <use xlink:href="#BitstreamVeraSans-Roman-36"/>
      </g>
     </g>
    </g>
    <g id="xtick_8">
     <g id="line2d_24">
      <path clip-path="url(#pff99bd13fa)" d="M 518.4 388.8 
L 518.4 43.2 
" style="fill:none;stroke:#000000;stroke-dasharray:1.000000,3.000000;stroke-dashoffset:0.0;stroke-width:0.5;"/>
     </g>
     <g id="line2d_25">
      <g>
       <use style="stroke:#000000;stroke-width:0.5;" x="518.4" xlink:href="#mc7fd86afe1" y="388.8"/>
      </g>
     </g>
     <g id="line2d_26">
      <g>
       <use style="stroke:#000000;stroke-width:0.5;" x="518.4" xlink:href="#m800e181340" y="43.2"/>
      </g>
     </g>
     <g id="text_8">
      <!-- 8 -->
      <defs>
       <path d="M 31.78125 34.625 
Q 24.75 34.625 20.71875 30.859375 
Q 16.703125 27.09375 16.703125 20.515625 
Q 16.703125 13.921875 20.71875 10.15625 
Q 24.75 6.390625 31.78125 6.390625 
Q 38.8125 6.390625 42.859375 10.171875 
Q 46.921875 13.96875 46.921875 20.515625 
Q 46.921875 27.09375 42.890625 30.859375 
Q 38.875 34.625 31.78125 34.625 
M 21.921875 38.8125 
Q 15.578125 40.375 12.03125 44.71875 
Q 8.5 49.078125 8.5 55.328125 
Q 8.5 64.0625 14.71875 69.140625 
Q 20.953125 74.21875 31.78125 74.21875 
Q 42.671875 74.21875 48.875 69.140625 
Q 55.078125 64.0625 55.078125 55.328125 
Q 55.078125 49.078125 51.53125 44.71875 
Q 48 40.375 41.703125 38.8125 
Q 48.828125 37.15625 52.796875 32.3125 
Q 56.78125 27.484375 56.78125 20.515625 
Q 56.78125 9.90625 50.3125 4.234375 
Q 43.84375 -1.421875 31.78125 -1.421875 
Q 19.734375 -1.421875 13.25 4.234375 
Q 6.78125 9.90625 6.78125 20.515625 
Q 6.78125 27.484375 10.78125 32.3125 
Q 14.796875 37.15625 21.921875 38.8125 
M 18.3125 54.390625 
Q 18.3125 48.734375 21.84375 45.5625 
Q 25.390625 42.390625 31.78125 42.390625 
Q 38.140625 42.390625 41.71875 45.5625 
Q 45.3125 48.734375 45.3125 54.390625 
Q 45.3125 60.0625 41.71875 63.234375 
Q 38.140625 66.40625 31.78125 66.40625 
Q 25.390625 66.40625 21.84375 63.234375 
Q 18.3125 60.0625 18.3125 54.390625 
" id="BitstreamVeraSans-Roman-38"/>
      </defs>
      <g transform="translate(514.5825 401.918125)scale(0.12 -0.12)">
       <use xlink:href="#BitstreamVeraSans-Roman-38"/>
      </g>
     </g>
    </g>
   </g>
   <g id="matplotlib.axis_2">
    <g id="ytick_1">
     <g id="line2d_27">
      <path clip-path="url(#pff99bd13fa)" d="M 72 388.8 
L 518.4 388.8 
" style="fill:none;stroke:#000000;stroke-dasharray:1.000000,3.000000;stroke-dashoffset:0.0;stroke-width:0.5;"/>
     </g>
     <g id="line2d_28">
      <defs>
       <path d="M 0 0 
L 4 0 
" id="m29d2a65fbf" style="stroke:#000000;stroke-width:0.5;"/>
      </defs>
      <g>
       <use style="stroke:#000000;stroke-width:0.5;" x="72.0" xlink:href="#m29d2a65fbf" y="388.8"/>
      </g>
     </g>
     <g id="line2d_29">
      <defs>
       <path d="M 0 0 
L -4 0 
" id="mc6decd4765" style="stroke:#000000;stroke-width:0.5;"/>
      </defs>
      <g>
       <use style="stroke:#000000;stroke-width:0.5;" x="518.4" xlink:href="#mc6decd4765" y="388.8"/>
      </g>
     </g>
     <g id="text_9">
      <!-- 1.0 -->
      <defs>
       <path d="M 12.40625 8.296875 
L 28.515625 8.296875 
L 28.515625 63.921875 
L 10.984375 60.40625 
L 10.984375 69.390625 
L 28.421875 72.90625 
L 38.28125 72.90625 
L 38.28125 8.296875 
L 54.390625 8.296875 
L 54.390625 0 
L 12.40625 0 
z
" id="BitstreamVeraSans-Roman-31"/>
       <path d="M 10.6875 12.40625 
L 21 12.40625 
L 21 0 
L 10.6875 0 
z
" id="BitstreamVeraSans-Roman-2e"/>
      </defs>
      <g transform="translate(48.91625 392.11125)scale(0.12 -0.12)">
       <use xlink:href="#BitstreamVeraSans-Roman-31"/>
       <use x="63.623046875" xlink:href="#BitstreamVeraSans-Roman-2e"/>
       <use x="95.41015625" xlink:href="#BitstreamVeraSans-Roman-30"/>
      </g>
     </g>
    </g>
    <g id="ytick_2">
     <g id="line2d_30">
      <path clip-path="url(#pff99bd13fa)" d="M 72 319.68 
L 518.4 319.68 
" style="fill:none;stroke:#000000;stroke-dasharray:1.000000,3.000000;stroke-dashoffset:0.0;stroke-width:0.5;"/>
     </g>
     <g id="line2d_31">
      <g>
       <use style="stroke:#000000;stroke-width:0.5;" x="72.0" xlink:href="#m29d2a65fbf" y="319.68"/>
      </g>
     </g>
     <g id="line2d_32">
      <g>
       <use style="stroke:#000000;stroke-width:0.5;" x="518.4" xlink:href="#mc6decd4765" y="319.68"/>
      </g>
     </g>
     <g id="text_10">
      <!-- 1.5 -->
      <defs>
       <path d="M 10.796875 72.90625 
L 49.515625 72.90625 
L 49.515625 64.59375 
L 19.828125 64.59375 
L 19.828125 46.734375 
Q 21.96875 47.46875 24.109375 47.828125 
Q 26.265625 48.1875 28.421875 48.1875 
Q 40.625 48.1875 47.75 41.5 
Q 54.890625 34.8125 54.890625 23.390625 
Q 54.890625 11.625 47.5625 5.09375 
Q 40.234375 -1.421875 26.90625 -1.421875 
Q 22.3125 -1.421875 17.546875 -0.640625 
Q 12.796875 0.140625 7.71875 1.703125 
L 7.71875 11.625 
Q 12.109375 9.234375 16.796875 8.0625 
Q 21.484375 6.890625 26.703125 6.890625 
Q 35.15625 6.890625 40.078125 11.328125 
Q 45.015625 15.765625 45.015625 23.390625 
Q 45.015625 31 40.078125 35.4375 
Q 35.15625 39.890625 26.703125 39.890625 
Q 22.75 39.890625 18.8125 39.015625 
Q 14.890625 38.140625 10.796875 36.28125 
z
" id="BitstreamVeraSans-Roman-35"/>
      </defs>
      <g transform="translate(48.91625 322.99125)scale(0.12 -0.12)">
       <use xlink:href="#BitstreamVeraSans-Roman-31"/>
       <use x="63.623046875" xlink:href="#BitstreamVeraSans-Roman-2e"/>
       <use x="95.41015625" xlink:href="#BitstreamVeraSans-Roman-35"/>
      </g>
     </g>
    </g>
    <g id="ytick_3">
     <g id="line2d_33">
      <path clip-path="url(#pff99bd13fa)" d="M 72 250.56 
L 518.4 250.56 
" style="fill:none;stroke:#000000;stroke-dasharray:1.000000,3.000000;stroke-dashoffset:0.0;stroke-width:0.5;"/>
     </g>
     <g id="line2d_34">
      <g>
       <use style="stroke:#000000;stroke-width:0.5;" x="72.0" xlink:href="#m29d2a65fbf" y="250.56"/>
      </g>
     </g>
     <g id="line2d_35">
      <g>
       <use style="stroke:#000000;stroke-width:0.5;" x="518.4" xlink:href="#mc6decd4765" y="250.56"/>
      </g>
     </g>
     <g id="text_11">
      <!-- 2.0 -->
      <g transform="translate(48.91625 253.87125)scale(0.12 -0.12)">
       <use xlink:href="#BitstreamVeraSans-Roman-32"/>
       <use x="63.623046875" xlink:href="#BitstreamVeraSans-Roman-2e"/>
       <use x="95.41015625" xlink:href="#BitstreamVeraSans-Roman-30"/>
      </g>
     </g>
    </g>
    <g id="ytick_4">
     <g id="line2d_36">
      <path clip-path="url(#pff99bd13fa)" d="M 72 181.44 
L 518.4 181.44 
" style="fill:none;stroke:#000000;stroke-dasharray:1.000000,3.000000;stroke-dashoffset:0.0;stroke-width:0.5;"/>
     </g>
     <g id="line2d_37">
      <g>
       <use style="stroke:#000000;stroke-width:0.5;" x="72.0" xlink:href="#m29d2a65fbf" y="181.44"/>
      </g>
     </g>
     <g id="line2d_38">
      <g>
       <use style="stroke:#000000;stroke-width:0.5;" x="518.4" xlink:href="#mc6decd4765" y="181.44"/>
      </g>
     </g>
     <g id="text_12">
      <!-- 2.5 -->
      <g transform="translate(48.91625 184.75125)scale(0.12 -0.12)">
       <use xlink:href="#BitstreamVeraSans-Roman-32"/>
       <use x="63.623046875" xlink:href="#BitstreamVeraSans-Roman-2e"/>
       <use x="95.41015625" xlink:href="#BitstreamVeraSans-Roman-35"/>
      </g>
     </g>
    </g>
    <g id="ytick_5">
     <g id="line2d_39">
      <path clip-path="url(#pff99bd13fa)" d="M 72 112.32 
L 518.4 112.32 
" style="fill:none;stroke:#000000;stroke-dasharray:1.000000,3.000000;stroke-dashoffset:0.0;stroke-width:0.5;"/>
     </g>
     <g id="line2d_40">
      <g>
       <use style="stroke:#000000;stroke-width:0.5;" x="72.0" xlink:href="#m29d2a65fbf" y="112.32"/>
      </g>
     </g>
     <g id="line2d_41">
      <g>
       <use style="stroke:#000000;stroke-width:0.5;" x="518.4" xlink:href="#mc6decd4765" y="112.32"/>
      </g>
     </g>
     <g id="text_13">
      <!-- 3.0 -->
      <defs>
       <path d="M 40.578125 39.3125 
Q 47.65625 37.796875 51.625 33 
Q 55.609375 28.21875 55.609375 21.1875 
Q 55.609375 10.40625 48.1875 4.484375 
Q 40.765625 -1.421875 27.09375 -1.421875 
Q 22.515625 -1.421875 17.65625 -0.515625 
Q 12.796875 0.390625 7.625 2.203125 
L 7.625 11.71875 
Q 11.71875 9.328125 16.59375 8.109375 
Q 21.484375 6.890625 26.8125 6.890625 
Q 36.078125 6.890625 40.9375 10.546875 
Q 45.796875 14.203125 45.796875 21.1875 
Q 45.796875 27.640625 41.28125 31.265625 
Q 36.765625 34.90625 28.71875 34.90625 
L 20.21875 34.90625 
L 20.21875 43.015625 
L 29.109375 43.015625 
Q 36.375 43.015625 40.234375 45.921875 
Q 44.09375 48.828125 44.09375 54.296875 
Q 44.09375 59.90625 40.109375 62.90625 
Q 36.140625 65.921875 28.71875 65.921875 
Q 24.65625 65.921875 20.015625 65.03125 
Q 15.375 64.15625 9.8125 62.3125 
L 9.8125 71.09375 
Q 15.4375 72.65625 20.34375 73.4375 
Q 25.25 74.21875 29.59375 74.21875 
Q 40.828125 74.21875 47.359375 69.109375 
Q 53.90625 64.015625 53.90625 55.328125 
Q 53.90625 49.265625 50.4375 45.09375 
Q 46.96875 40.921875 40.578125 39.3125 
" id="BitstreamVeraSans-Roman-33"/>
      </defs>
      <g transform="translate(48.91625 115.63125)scale(0.12 -0.12)">
       <use xlink:href="#BitstreamVeraSans-Roman-33"/>
       <use x="63.623046875" xlink:href="#BitstreamVeraSans-Roman-2e"/>
       <use x="95.41015625" xlink:href="#BitstreamVeraSans-Roman-30"/>
      </g>
     </g>
    </g>
    <g id="ytick_6">
     <g id="line2d_42">
      <path clip-path="url(#pff99bd13fa)" d="M 72 43.2 
L 518.4 43.2 
" style="fill:none;stroke:#000000;stroke-dasharray:1.000000,3.000000;stroke-dashoffset:0.0;stroke-width:0.5;"/>
     </g>
     <g id="line2d_43">
      <g>
       <use style="stroke:#000000;stroke-width:0.5;" x="72.0" xlink:href="#m29d2a65fbf" y="43.2"/>
      </g>
     </g>
     <g id="line2d_44">
      <g>
       <use style="stroke:#000000;stroke-width:0.5;" x="518.4" xlink:href="#mc6decd4765" y="43.2"/>
      </g>
     </g>
     <g id="text_14">
      <!-- 3.5 -->
      <g transform="translate(48.91625 46.51125)scale(0.12 -0.12)">
       <use xlink:href="#BitstreamVeraSans-Roman-33"/>
       <use x="63.623046875" xlink:href="#BitstreamVeraSans-Roman-2e"/>
       <use x="95.41015625" xlink:href="#BitstreamVeraSans-Roman-35"/>
      </g>
     </g>
    </g>
   </g>
  </g>
 </g>
 <defs>
  <clipPath id="pff99bd13fa">
   <rect height="345.6" width="446.4" x="72.0" y="43.2"/>
  </clipPath>
 </defs>
</svg>
